<?xml version="1.0" standalone="no"?>
<!DOCTYPE svg PUBLIC "-//W3C//DTD SVG 20010904//EN"
 "http://www.w3.org/TR/2001/REC-SVG-20010904/DTD/svg10.dtd">
<svg version="1.0" xmlns="http://www.w3.org/2000/svg"
 width="243.000000pt" height="208.000000pt" viewBox="0 0 243.000000 208.000000"
 preserveAspectRatio="xMidYMid meet">

<g transform="translate(0.000000,208.000000) scale(0.100000,-0.100000)"
fill="#000000" stroke="none">
<path d="M1160 2074 c-101 -37 -259 -130 -312 -185 -26 -27 -51 -49 -55 -49
-11 0 -70 -71 -108 -128 -35 -53 -78 -213 -69 -255 8 -36 42 -117 59 -137 7
-8 20 -55 29 -105 22 -116 25 -127 38 -119 6 4 8 -1 4 -14 -9 -26 7 -59 42
-90 15 -14 22 -26 16 -28 -12 -5 -7 -51 7 -60 21 -12 1 -124 -21 -124 -12 0
-40 -66 -40 -95 0 -14 7 -40 16 -58 23 -46 121 -138 187 -176 56 -32 73 -47
40 -34 -10 4 -44 22 -76 40 -31 18 -64 30 -72 26 -10 -3 -14 0 -12 8 2 8 2 11
0 7 -2 -4 -12 -5 -21 -2 -14 5 -13 3 2 -10 11 -9 17 -19 13 -22 -4 -4 -2 -13
4 -21 14 -16 -3 -17 -19 -1 -7 7 -12 9 -12 5 0 -11 53 -56 65 -57 6 0 3 5 -5
11 -13 9 -13 10 0 6 8 -2 14 -10 13 -18 -1 -8 36 -41 82 -74 47 -32 85 -63 85
-67 0 -4 6 -8 14 -8 7 0 19 -7 26 -15 25 -31 -11 -14 -80 36 -58 43 -73 49
-85 39 -9 -8 -15 -8 -15 -2 0 6 5 12 10 14 6 2 -8 18 -32 36 -23 18 -48 30
-55 28 -8 -3 -13 3 -14 17 -1 22 -1 22 -7 -1 -11 -37 -25 -29 -54 28 -52 107
-56 193 -13 296 18 43 8 43 -25 2 -30 -38 -72 -78 -82 -78 -4 0 -19 -16 -34
-36 -21 -27 -25 -38 -15 -44 10 -6 10 -9 1 -15 -7 -4 -16 -2 -20 5 -5 8 -9 7
-13 -4 -4 -9 -13 -16 -21 -16 -18 0 -116 -77 -116 -91 0 -6 6 -9 12 -7 7 3 19
-2 27 -10 10 -10 16 -11 19 -3 2 6 10 11 19 11 12 0 12 -2 1 -13 -14 -14 -78
-19 -78 -6 0 14 -31 18 -58 6 -15 -6 -43 -23 -62 -38 -19 -15 -55 -37 -80 -50
-25 -13 -49 -28 -55 -32 -24 -19 -121 -78 -136 -82 -14 -5 -17 -22 -17 -109
l-1 -104 445 -1 c244 -1 444 2 444 7 0 5 -18 53 -40 107 -22 54 -40 103 -40
108 0 10 48 -17 65 -37 14 -15 82 -66 89 -66 3 0 5 3 4 8 -2 4 0 8 5 10 16 5
19 1 8 -12 -9 -10 -4 -19 23 -40 19 -14 39 -25 43 -24 4 2 9 -1 11 -7 2 -5 13
-20 24 -32 20 -21 30 -23 132 -23 110 0 111 1 87 19 -14 11 -21 23 -16 30 4 8
-8 25 -32 46 -48 43 -39 46 13 4 28 -22 45 -29 64 -24 16 4 20 3 12 -3 -11 -7
-10 -10 3 -15 9 -4 13 -3 10 3 -3 6 -1 10 4 10 6 0 11 -5 11 -12 0 -6 3 -8 6
-5 4 4 -5 22 -20 41 -38 50 -34 94 8 87 4 -1 5 11 2 26 -4 15 -3 23 1 17 4 -6
15 -10 23 -9 13 2 15 -9 12 -66 -5 -77 3 -113 18 -89 6 9 5 17 -3 22 -7 4 4 5
23 2 45 -9 56 -18 64 -54 5 -27 9 -30 46 -30 22 0 40 2 40 5 0 11 -82 170 -95
185 -8 9 -12 20 -8 25 5 4 -2 3 -14 -4 -12 -6 -27 -19 -32 -29 -9 -15 -10 -15
-11 4 0 11 9 30 20 42 11 12 20 26 20 32 0 6 5 8 10 5 6 -4 11 14 11 47 2 52
2 52 10 -19 10 -85 58 -214 97 -261 l27 -32 213 2 213 3 -63 62 c-70 70 -162
137 -224 165 -42 18 -54 34 -54 67 0 13 -21 25 -82 45 -105 34 -145 61 -152
101 -5 27 3 45 50 116 31 46 77 107 103 134 27 28 55 72 66 100 10 28 32 84
50 125 17 41 38 96 46 123 7 26 17 47 21 47 4 0 8 13 8 29 0 17 5 33 10 36 6
3 10 16 10 28 0 18 2 19 10 7 9 -13 14 -8 11 12 0 4 9 10 22 14 12 4 24 10 27
14 10 16 45 15 42 0 -1 -8 9 -2 22 14 14 17 22 34 20 38 -3 5 1 20 10 33 12
18 15 45 13 117 -2 51 -8 102 -14 113 -9 15 -10 8 -6 -35 2 -30 -1 -66 -6 -80
-9 -21 -10 -17 -6 25 4 34 3 45 -4 36 -7 -11 -8 -1 -5 30 3 34 2 38 -5 19 -6
-15 -9 -19 -10 -9 -1 18 -28 20 -48 4 -7 -5 -20 -16 -29 -24 -15 -12 -16 -11
-9 9 4 13 6 44 5 69 -4 86 -1 123 12 115 5 -3 7 -8 4 -12 -2 -4 0 -27 5 -52
l8 -45 -2 48 c-1 26 1 47 5 47 4 0 0 9 -9 19 -9 11 -21 17 -26 14 -6 -4 -7 -1
-2 6 4 8 -4 24 -20 41 -19 19 -26 36 -22 49 3 12 1 19 -4 15 -5 -3 -9 0 -9 5
0 6 6 11 13 11 8 0 7 4 -3 10 -12 8 -12 10 5 10 16 0 17 2 6 9 -8 5 -16 22
-19 38 -4 30 -19 53 -35 53 -29 0 -185 65 -202 84 -18 19 -32 22 -118 24 -59
1 -97 -2 -97 -8 0 -5 7 -10 15 -10 8 0 15 -4 15 -10 0 -13 -6 -13 -32 1 -15 8
-19 8 -13 -1 4 -6 17 -15 29 -20 15 -6 16 -9 5 -9 -9 -1 -30 6 -45 14 -16 8
-24 15 -18 15 7 0 14 6 17 13 4 11 -14 14 -81 15 -48 0 -94 -2 -102 -4z m100
-28 c0 -2 -9 -6 -20 -9 -11 -3 -18 -1 -14 4 5 9 34 13 34 5z m85 -26 c-3 -5
-1 -10 5 -10 6 0 9 -4 6 -9 -3 -5 -21 -5 -40 -1 -19 4 -47 6 -63 3 l-28 -4 25
14 c29 17 105 23 95 7z m100 0 c3 -5 2 -10 -4 -10 -5 0 -13 5 -16 10 -3 6 -2
10 4 10 5 0 13 -4 16 -10z m62 -16 c-3 -3 -12 -4 -19 -1 -8 3 -5 6 6 6 11 1
17 -2 13 -5z m-143 -30 c9 -3 13 -10 10 -15 -8 -13 20 -11 34 3 9 9 15 9 25
-1 10 -10 8 -11 -7 -5 -14 5 -17 4 -12 -5 4 -6 4 -11 -1 -10 -40 7 -84 -3 -94
-22 -9 -17 -8 -20 2 -13 8 4 22 9 32 9 17 2 17 0 -3 -15 -27 -20 -67 -23 -74
-5 -8 23 23 55 55 55 16 0 29 5 29 11 0 5 -4 8 -8 5 -4 -2 -14 -1 -22 5 -13 7
-12 9 2 9 9 0 23 -3 32 -6z m259 -42 c38 -28 62 -39 92 -39 39 -1 39 -1 15 13
-14 7 -20 13 -15 14 6 0 22 -8 38 -18 l27 -19 -42 -2 c-24 -2 -49 -3 -55 -4
-18 -1 5 -27 23 -27 8 0 14 -8 14 -17 0 -20 38 -63 57 -63 7 0 12 -3 11 -7 -1
-5 6 -23 15 -41 13 -23 14 -31 5 -30 -7 2 -16 10 -20 18 -5 12 -7 11 -7 -3 -1
-10 -5 -15 -11 -12 -5 3 -12 -6 -16 -21 -6 -23 -11 -25 -45 -22 -21 2 -40 -1
-42 -6 -2 -5 -16 -2 -32 7 -27 14 -33 14 -57 -1 -29 -17 -40 -49 -14 -39 9 4
18 -2 22 -15 6 -21 7 -21 21 3 8 13 12 16 9 7 -3 -11 0 -18 8 -18 8 0 17 -7
20 -16 3 -8 2 -12 -4 -9 -6 3 -7 -1 -4 -9 3 -9 11 -13 18 -9 6 4 5 -1 -3 -10
-15 -19 -26 -23 -16 -7 5 7 -7 9 -35 6 -24 -3 -50 0 -62 7 -16 9 -22 9 -25 0
-3 -7 -9 -13 -14 -13 -6 0 -8 4 -4 9 7 12 -12 24 -25 16 -8 -5 -7 -11 1 -21
10 -12 9 -13 -5 -8 -9 3 -16 10 -16 14 0 5 -9 6 -20 3 -11 -3 -30 4 -46 16
-18 15 -34 19 -53 15 -42 -10 -47 -22 -18 -44 16 -13 27 -31 27 -45 0 -25 1
-24 -125 -41 -27 -4 -60 -11 -72 -15 -13 -5 -23 -6 -23 -4 0 11 57 27 120 35
l65 7 -60 1 c-35 1 -82 -6 -112 -17 -49 -17 -64 -16 -45 3 4 4 8 12 8 17 3 22
5 23 14 9 8 -11 9 -7 4 15 -4 20 -3 26 4 17 8 -11 10 -11 15 1 9 24 -4 28 -30
12 -14 -10 -32 -13 -45 -9 -15 4 -18 3 -12 -7 4 -7 -7 -3 -25 10 -27 20 -31
27 -26 52 4 18 2 29 -4 29 -21 0 -11 31 14 40 14 5 25 15 25 21 0 7 3 10 6 6
4 -3 23 1 43 10 40 17 160 43 206 44 26 0 27 2 10 9 -20 9 -20 9 2 15 13 4 20
12 16 21 -3 8 2 17 11 20 9 3 16 13 16 20 0 13 41 37 65 38 6 1 15 8 22 17 8
10 21 15 36 12 18 -4 30 2 45 25 12 16 19 32 15 36 -3 3 -1 6 5 6 6 0 13 -4
17 -10 7 -11 35 -2 35 12 0 5 -4 6 -10 3 -5 -3 -10 1 -10 9 0 22 4 21 63 -22z
m-138 8 c-3 -5 -11 -10 -16 -10 -6 0 -7 5 -4 10 3 6 11 10 16 10 6 0 7 -4 4
-10z m-85 -14 c0 -3 -4 -8 -10 -11 -5 -3 -10 -1 -10 4 0 6 5 11 10 11 6 0 10
-2 10 -4z m407 -62 c-3 -3 -12 -4 -19 -1 -8 3 -5 6 6 6 11 1 17 -2 13 -5z
m-51 -55 c19 -22 19 -22 -3 -8 -13 8 -23 17 -23 21 0 12 6 9 26 -13z m-839
-99 c0 -16 -2 -28 -5 -25 -8 8 -31 -22 -38 -49 -4 -17 -12 -25 -20 -22 -7 3
-15 -3 -17 -12 -3 -10 -5 -6 -6 10 -1 29 14 46 23 26 3 -7 4 -4 1 8 -3 11 2
29 11 40 8 10 12 13 8 5 -5 -9 -3 -12 4 -7 7 4 12 13 12 20 0 9 19 36 25 36 1
0 2 -13 2 -30z m20 -22 c-3 -8 -6 -5 -6 6 -1 11 2 17 5 13 3 -3 4 -12 1 -19z
m-11 -69 c11 -12 11 -18 2 -27 -23 -23 -38 -13 -38 26 0 42 13 66 19 35 1 -10
9 -25 17 -34z m-37 -69 c0 -9 -4 -8 -9 5 -5 11 -9 27 -9 35 0 9 4 8 9 -5 5
-11 9 -27 9 -35z m857 -28 c-3 -2 -17 -6 -31 -7 -28 -4 -35 11 -7 17 19 5 45
-2 38 -10z m-953 -50 c4 -21 3 -31 -3 -27 -6 3 -10 20 -10 37 0 38 5 34 13
-10z m228 -5 c-10 -9 -11 -8 -5 6 3 10 9 15 12 12 3 -3 0 -11 -7 -18z m444
-17 c6 -18 20 -37 31 -41 16 -7 17 -8 2 -8 -13 -1 -18 -9 -18 -32 0 -33 38
-171 50 -179 4 -3 12 -15 19 -27 10 -19 9 -22 -3 -17 -9 3 -18 15 -22 26 -5
16 -14 19 -58 17 -29 -1 -58 1 -65 5 -6 4 -17 3 -24 -2 -7 -5 -25 -12 -40 -14
-42 -8 -31 23 18 46 21 11 34 21 28 23 -8 3 -5 18 9 45 21 41 32 108 18 108
-17 0 -16 38 1 49 11 6 19 18 19 27 0 27 23 10 35 -26z m145 -35 c-7 -8 -18
-15 -24 -14 -7 0 -6 2 2 6 6 2 10 9 6 14 -3 5 2 9 12 9 13 0 14 -3 4 -15z
m-220 -24 c0 -10 -9 -28 -20 -41 -11 -13 -20 -32 -20 -43 0 -17 2 -18 17 -6
17 13 17 12 2 -11 -19 -31 -117 -81 -143 -74 -10 4 -21 2 -25 -4 -3 -5 -17
-13 -31 -17 -22 -7 -23 -6 -11 9 12 14 10 16 -13 18 -48 2 -51 3 -58 12 -4 6
-12 5 -21 -2 -25 -21 -64 2 -88 53 l-21 45 23 21 c13 11 19 18 13 15 -6 -3
-11 1 -11 9 0 11 8 13 26 8 37 -8 36 -8 39 -44 1 -17 7 -39 12 -48 7 -11 8 4
4 44 l-7 60 20 -25 c11 -14 23 -35 27 -48 4 -12 11 -20 16 -17 5 3 15 -1 23
-9 41 -42 127 -21 165 38 l23 38 -22 -7 c-19 -6 -20 -5 -8 8 8 8 19 13 25 10
5 -2 18 5 28 16 21 23 36 19 36 -8z m-332 12 c-10 -2 -26 -2 -35 0 -10 3 -2 5
17 5 19 0 27 -2 18 -5z m606 -1 c2 -4 -5 -9 -17 -9 -12 -1 -27 -9 -33 -17 -11
-16 -24 -12 -24 7 0 6 3 8 6 5 3 -4 17 0 32 8 32 16 30 16 36 6z m306 -22 c-6
-11 -13 -20 -16 -20 -2 0 0 9 6 20 6 11 13 20 16 20 2 0 0 -9 -6 -20z m-822
-9 c45 -18 41 -35 -5 -26 -21 4 -41 9 -45 11 -9 6 2 36 11 31 3 -2 21 -9 39
-16z m135 12 c-7 -2 -21 -2 -30 0 -10 3 -4 5 12 5 17 0 24 -2 18 -5z m484 -70
c-3 -10 -5 -2 -5 17 0 19 2 27 5 18 2 -10 2 -26 0 -35z m-477 22 c-7 -9 -15
-13 -17 -11 -7 7 7 26 19 26 6 0 6 -6 -2 -15z m257 -20 c0 -8 -4 -12 -9 -9 -5
3 -6 10 -3 15 9 13 12 11 12 -6z m285 -59 c-35 -48 -62 -64 -119 -67 -25 -2
-45 -9 -48 -16 -3 -9 0 -12 8 -8 6 4 4 0 -5 -8 -10 -8 -15 -17 -11 -20 3 -4
-1 -7 -11 -7 -9 0 -15 4 -12 9 4 5 -2 7 -13 4 -12 -3 -21 2 -25 14 -3 10 -9
24 -12 31 -5 10 1 10 24 -2 34 -17 56 -22 32 -6 -13 9 -13 10 0 10 8 1 -2 7
-22 14 -54 19 -88 44 -88 63 0 15 2 14 20 -3 38 -38 52 -46 71 -41 10 3 19 2
19 -2 0 -10 22 -13 84 -13 44 -1 53 3 83 35 18 20 33 45 33 55 0 25 14 38 18
17 2 -10 -9 -36 -26 -59z m-216 39 c26 -14 58 -25 71 -25 21 0 22 -3 13 -20
-13 -24 -28 -25 -51 -4 -10 9 -32 23 -50 32 -18 10 -35 23 -37 30 -5 17 0 16
54 -13z m129 -35 c-26 -29 -39 -25 -13 5 12 14 24 23 26 20 3 -3 -3 -14 -13
-25z m-158 4 c-3 -3 -12 -4 -19 -1 -8 3 -5 6 6 6 11 1 17 -2 13 -5z m174 -37
c-10 -9 -11 -8 -5 6 3 10 9 15 12 12 3 -3 0 -11 -7 -18z m-456 -117 c11 -16
26 -31 33 -31 6 -1 18 -2 24 -3 7 0 14 -8 16 -18 3 -18 -1 -20 -95 -38 -43 -9
-63 -17 -63 -27 0 -10 -6 -13 -16 -9 -22 8 -85 -60 -76 -83 5 -14 4 -14 -10
-1 -16 16 -8 50 13 50 5 0 30 33 56 73 46 72 81 117 92 117 3 0 15 -14 26 -30z
m-88 6 c-3 -6 -10 -10 -17 -8 -8 2 -11 -4 -7 -18 3 -11 2 -18 -3 -15 -4 3 -24
-2 -44 -10 -19 -8 -51 -15 -71 -15 -28 0 -38 -5 -46 -24 -11 -24 -74 -45 -66
-22 2 6 12 11 23 11 12 0 20 8 22 21 3 18 12 22 55 27 28 2 53 10 55 16 8 25
45 50 73 49 17 -1 28 -6 26 -12z m-227 -29 c10 -4 7 -6 -7 -6 -13 -1 -23 1
-23 3 0 2 -3 13 -6 23 -6 16 -5 17 7 2 8 -9 21 -19 29 -22z m585 -43 c0 -32
-29 -72 -40 -55 -3 6 -13 7 -23 4 -15 -6 -16 -5 -2 12 13 15 13 17 1 14 -22
-7 -24 -25 -6 -42 23 -24 18 -27 -16 -10 -16 8 -41 13 -55 10 -13 -2 -27 0
-30 4 -3 5 -27 9 -55 9 -58 0 -64 12 -12 28 27 8 41 8 57 -1 12 -6 28 -10 36
-9 45 7 60 14 60 26 0 8 9 16 21 19 15 4 19 2 15 -9 -3 -8 -2 -13 3 -9 5 3 12
19 16 35 5 24 9 27 19 17 6 -6 12 -26 11 -43z m-399 1 c-3 -9 -11 -13 -17 -9
-7 4 -10 3 -6 -2 3 -5 -1 -17 -8 -27 -12 -16 -13 -16 -19 -1 -7 19 10 44 30
44 8 0 14 5 14 12 0 6 3 9 6 5 4 -3 4 -13 0 -22z m551 -27 c-8 -24 -12 -28
-15 -15 -2 10 2 24 8 32 19 22 20 18 7 -17z m-639 -10 c-7 -20 -48 -23 -48 -4
0 11 9 16 26 16 16 0 24 -5 22 -12z m497 -28 c-3 -5 -11 -10 -16 -10 -6 0 -7
5 -4 10 3 6 11 10 16 10 6 0 7 -4 4 -10z m130 -10 c3 -5 2 -10 -4 -10 -5 0
-13 5 -16 10 -3 6 -2 10 4 10 5 0 13 -4 16 -10z m-531 -235 c-6 -16 -24 -21
-24 -7 0 11 11 22 21 22 5 0 6 -7 3 -15z m173 -5 c2 0 3 -3 3 -7 0 -5 -33 -8
-73 -9 -39 0 -64 2 -54 4 9 2 17 7 17 12 0 13 41 17 75 8 16 -4 31 -8 32 -8z
m74 0 c6 0 7 -4 4 -10 -10 -16 -45 -12 -45 6 0 11 5 14 16 10 9 -3 20 -6 25
-6z m-811 -170 c0 -5 -5 -10 -11 -10 -5 0 -7 5 -4 10 3 6 8 10 11 10 2 0 4 -4
4 -10z m-40 -50 c-27 -7 -43 -3 -35 9 2 5 17 6 32 3 l28 -6 -25 -6z m40 -20
c0 -5 -4 -10 -10 -10 -5 0 -10 5 -10 10 0 6 5 10 10 10 6 0 10 -4 10 -10z
m-139 -23 c-10 -9 -11 -8 -5 6 3 10 9 15 12 12 3 -3 0 -11 -7 -18z m89 9 c-4
-4 -16 -4 -26 2 -16 9 -14 10 8 9 15 -1 23 -6 18 -11z m57 -29 c11 4 14 2 9
-5 -9 -14 -16 -15 -35 -3 -8 6 -10 14 -5 22 7 11 9 11 12 -3 2 -11 9 -15 19
-11z m-97 -7 c0 -5 -5 -10 -11 -10 -5 0 -7 5 -4 10 3 6 8 10 11 10 2 0 4 -4 4
-10z m36 -28 c1 -7 0 -8 -2 -3 -3 6 -12 7 -21 4 -11 -4 -14 -3 -9 6 9 14 29
10 32 -7z m44 -1 c0 -4 -6 -8 -14 -8 -8 0 -12 6 -9 14 5 13 23 9 23 -6z m101
-8 c13 -16 12 -17 -3 -4 -10 7 -18 15 -18 17 0 8 8 3 21 -13z m-41 -33 c0 -5
-2 -10 -4 -10 -3 0 -8 5 -11 10 -3 6 -1 10 4 10 6 0 11 -4 11 -10z m-315 -10
c3 -5 1 -10 -4 -10 -6 0 -11 5 -11 10 0 6 2 10 4 10 3 0 8 -4 11 -10z m500
-18 c-3 -3 -11 0 -18 7 -9 10 -8 11 6 5 10 -3 15 -9 12 -12z m-250 -2 c3 -5 1
-10 -4 -10 -6 0 -11 5 -11 10 0 6 2 10 4 10 3 0 8 -4 11 -10z m-40 -10 c3 -5
1 -10 -4 -10 -6 0 -11 5 -11 10 0 6 2 10 4 10 3 0 8 -4 11 -10z m-315 -154 c0
-2 -11 -6 -25 -8 -14 -3 -25 -1 -25 3 0 5 11 9 25 9 14 0 25 -2 25 -4z m284
-42 c3 -8 2 -12 -4 -9 -6 3 -10 10 -10 16 0 14 7 11 14 -7z m-289 -34 c-3 -5
-12 -10 -18 -10 -7 0 -6 4 3 10 19 12 23 12 15 0z"/>
<path d="M1630 1896 c0 -2 7 -7 16 -10 8 -3 12 -2 9 4 -6 10 -25 14 -25 6z"/>
<path d="M1704 1705 c36 -19 47 -19 22 0 -11 8 -27 15 -35 15 -9 0 -3 -7 13
-15z"/>
<path d="M1572 1697 c10 -8 15 -17 11 -20 -3 -4 -1 -7 5 -7 7 0 12 5 12 11 0
6 7 8 18 4 11 -4 13 -3 7 3 -5 5 -23 12 -40 16 -27 6 -28 5 -13 -7z"/>
<path d="M1100 1675 c-14 -8 -20 -15 -15 -15 6 0 -1 -10 -14 -20 -19 -17 -22
-26 -17 -55 l7 -36 26 21 c14 11 31 20 37 20 6 0 23 6 37 13 14 8 45 17 70 21
69 11 108 26 103 40 -3 7 -10 13 -17 14 -147 11 -194 11 -217 -3z"/>
<path d="M1315 1280 c3 -5 -2 -10 -11 -10 -10 0 -15 -3 -11 -6 10 -10 58 5 52
16 -3 6 -13 10 -21 10 -8 0 -12 -4 -9 -10z"/>
<path d="M1305 40 c3 -5 8 -10 11 -10 2 0 4 5 4 10 0 6 -5 10 -11 10 -5 0 -7
-4 -4 -10z"/>
<path d="M1393 25 c0 -22 4 -25 38 -25 22 0 39 2 39 5 0 2 -17 13 -39 24 l-38
20 0 -24z"/>
</g>
</svg>
